
<svg width="140" height="280" xmlns="http://www.w3.org/2000/svg" class="illustration styles_illustrationTablet__1DWOa">
 <defs>
  <clipPath id="clip-path">
   <circle id="svg_1" fill="none" r="97.58" cy="-45.49" cx="-152.26"/>
  </clipPath>
 </defs>
 <g>
  <title>background</title>
  <rect fill="none" id="canvas_background" height="282" width="142" y="-1" x="-1"/>
 </g>
 <g>
  <title>Layer 1</title>
  <g id="svg_19">
   <circle id="svg_2" opacity="0.45" fill="#e6e6e6" r="68.980003" cy="69.27" cx="69.12"/>
   <path id="svg_3" fill="#f4a28c" d="m78.33,37.61s2,9.64 1.13,16.31a4.94,4.94 0 0 1 -5.58,4.25c-3.35,-0.48 -7.75,-2.12 -9.45,-7.15l-3.94,-8.2s-2.28,-5.22 2.76,-9.84s14.15,-1.31 15.08,4.63z"/>
   <polygon id="svg_4" fill="#f4a28c" points="61.209999084472656,44.30999755859375 59.93000030517578,76.55999755859375 77.75,75.989990234375 71.5199966430664,52.75 61.209999084472656,44.30999755859375 "/>
   <path id="svg_5" fill="#24285b" d="m76,38.3a39.79,39.79 0 0 1 -9.1,0.38a8.19,8.19 0 0 1 1.06,8.94a6.67,6.67 0 0 1 -7.7,3.6l-1.33,-12.58a10,10 0 0 1 4,-9.48a37,37 0 0 1 3.95,-2.54c3.45,-1.88 9,-0.1 12,-2.92a2.37,2.37 0 0 1 3.92,1.1c1,3.75 1.05,9.85 -3.87,12.55a9.3,9.3 0 0 1 -2.93,0.95z"/>
   <path id="svg_6" fill="#f4a28c" d="m68.93,47.21s-0.52,-3.76 -3.32,-3.13s-2.07,6.06 1.83,6.11l1.49,-2.98z"/>
   <path id="svg_7" fill="#f4a28c" d="m79.28,43.75l3.17,3.44a1.58,1.58 0 0 1 -0.69,2.57l-3.66,1.15l1.18,-7.16z"/>
   <path id="svg_8" opacity="0.31" fill="#ce8172" d="m73.1,57.78a11.66,11.66 0 0 1 -6.1,-2.73s1,5.83 8.07,10.85l-1.97,-8.12z"/>
   <path id="svg_9" fill="#22c085" d="m22.65,120.25s-1.06,-43.3 45.64,-45.54s45.47,47.45 45.47,47.45s-44.06,40.16 -91.11,-1.91z"/>
  </g>
  <g id="svg_20">
   <circle id="svg_10" opacity="0.45" fill="#e6e6e6" r="68.980003" cy="209.432101" cx="69.307938"/>
   <path id="svg_11" fill="#f4a28c" d="m78.507938,177.762101s2,9.64 1.13,16.32a4.94,4.94 0 0 1 -5.57,4.25c-3.36,-0.49 -7.75,-2.12 -9.45,-7.16l-3.94,-8.19s-2.29,-5.23 2.76,-9.84s14.15,-1.32 15.07,4.62z"/>
   <polygon id="svg_12" fill="#f4a28c" points="61.3879679441452,184.46209716796875 60.1079386472702,216.7121124267578 77.92793071269989,216.14210510253906 71.70792949199677,192.912109375 61.3879679441452,184.46209716796875 "/>
   <path id="svg_13" fill="#f4a28c" d="m69.107938,187.362101s-0.52,-3.75 -3.31,-3.13s-2.08,6.06 1.83,6.11l1.48,-2.98z"/>
   <path id="svg_14" fill="#f4a28c" d="m79.457938,183.902101l3.17,3.44a1.58,1.58 0 0 1 -0.69,2.58l-3.69,1.14l1.21,-7.16z"/>
   <path id="svg_15" opacity="0.31" fill="#ce8172" d="m73.247938,197.932101a11.63,11.63 0 0 1 -6.09,-2.68s0.95,5.83 8.07,10.86l-1.98,-8.18z"/>
   <path id="svg_16" fill="#22c085" d="m22.827938,260.402101s-1.05,-43.3 45.65,-45.54s45.47,47.45 45.47,47.45s-44.07,40.16 -91.12,-1.91z"/>
   <path id="svg_17" fill="#24285b" d="m71.187938,181.022101l14.51,-1.28s-1.79,-10.47 -12,-12.26s-16.09,3.83 -16.85,14.56s4,15.29 4,15.29s13.2,0.28 10.34,-16.31z"/>
   <path id="svg_18" fill="#24285b" d="m62.827938,169.252101s-12.37,2.46 -12.37,21.13s-14.64,27.7 -2.55,38.93s31.49,3.92 23.32,-11.23s4.7,-20.6 0,-37s-8.4,-11.83 -8.4,-11.83z"/>
  </g>
 </g>
</svg>